<svg xmlns="http://www.w3.org/2000/svg" width="33.919" height="36.679" viewBox="0 0 33.919 36.679">
  <path id="path" d="M342.384,122.191a29.6,29.6,0,0,0,12.437,13.449l4.146-4.483a1.424,1.424,0,0,1,1.884-.408,18.378,18.378,0,0,0,6.784,1.223,1.653,1.653,0,0,1,1.319.611,1.923,1.923,0,0,1,.565,1.426v7.132a1.923,1.923,0,0,1-.565,1.426,1.653,1.653,0,0,1-1.319.611c-8.857,0-16.394-3.464-22.613-10.189a34.8,34.8,0,0,1-9.422-24.453,1.923,1.923,0,0,1,.565-1.426,1.653,1.653,0,0,1,1.319-.611h6.6a1.653,1.653,0,0,1,1.319.611,1.923,1.923,0,0,1,.565,1.426,24.788,24.788,0,0,0,1.131,7.336,2.366,2.366,0,0,1-.377,2.038Z" transform="translate(-335.6 -106.5)" fill="#fff"/>
</svg>
