<svg xmlns="http://www.w3.org/2000/svg" width="29.833" height="30.688" viewBox="0 0 29.833 30.688">
  <path id="path" d="M768.049,142.2a2.674,2.674,0,0,1,2.088,1.151,4.378,4.378,0,0,1,.9,2.685v23.016a4.378,4.378,0,0,1-.9,2.685,2.674,2.674,0,0,1-2.088,1.151H744.183a2.674,2.674,0,0,1-2.088-1.151,4.378,4.378,0,0,1-.895-2.685V146.036a4.379,4.379,0,0,1,.895-2.685,2.674,2.674,0,0,1,2.088-1.151Zm0,7.672v-3.836l-11.933,9.59-11.933-9.59v3.836l11.933,9.59Z" transform="translate(-741.2 -142.2)" fill="#f5f5f5"/>
</svg>
