<svg xmlns="http://www.w3.org/2000/svg" width="25.746" height="37.679" viewBox="0 0 25.746 37.679">
  <path id="path" d="M156.8,109.287a11.771,11.771,0,0,1,8.947-3.787,12.185,12.185,0,0,1,8.947,3.787,13.115,13.115,0,0,1,3.652,9.278,16.649,16.649,0,0,1-1.278,6.248,44.427,44.427,0,0,1-3.287,6.627c-1.278,2.083-2.556,3.976-3.652,5.87-1.278,1.893-2.191,3.219-3.1,4.355l-1.461,1.515c-.365-.379-.73-.947-1.461-1.7-.548-.757-1.643-2.083-3.1-4.166s-2.739-3.976-3.834-5.87a51.78,51.78,0,0,1-3.1-6.438,19,19,0,0,1-1.461-6.438C153.148,114.967,154.243,111.748,156.8,109.287Zm5.843,12.686a4.738,4.738,0,0,0,6.573,0,5.183,5.183,0,0,0,0-6.816,4.738,4.738,0,0,0-6.573,0,5.183,5.183,0,0,0,0,6.816Z" transform="translate(-152.6 -105.5)" fill="#f5f5f5"/>
</svg>
